<mxfile host="app.diagrams.net" modified="2022-09-17T18:11:01.665Z" agent="5.0 (Windows NT 10.0; Win64; x64) AppleWebKit/537.36 (KHTML, like Gecko) Chrome/105.0.0.0 Safari/537.36" etag="zXICEqy67OTFO5jsG4qY" version="20.3.2" type="github">
  <diagram id="4i4zgwOOVJqu0-XRYA0A" name="Страница 1">
    <mxGraphModel dx="1662" dy="762" grid="1" gridSize="10" guides="1" tooltips="1" connect="1" arrows="1" fold="1" page="1" pageScale="1" pageWidth="827" pageHeight="1169" math="0" shadow="0">
      <root>
        <mxCell id="0" />
        <mxCell id="1" parent="0" />
        <mxCell id="zIZVEje3WuGMYo_VxOPI-1" value="" style="rounded=0;whiteSpace=wrap;html=1;" vertex="1" parent="1">
          <mxGeometry x="200" y="40" width="400" height="640" as="geometry" />
        </mxCell>
        <mxCell id="zIZVEje3WuGMYo_VxOPI-2" value="" style="endArrow=none;html=1;rounded=0;entryX=0.002;entryY=0.041;entryDx=0;entryDy=0;exitX=0.149;exitY=0.001;exitDx=0;exitDy=0;exitPerimeter=0;entryPerimeter=0;" edge="1" parent="1" source="zIZVEje3WuGMYo_VxOPI-1" target="zIZVEje3WuGMYo_VxOPI-1">
          <mxGeometry width="50" height="50" relative="1" as="geometry">
            <mxPoint x="290" y="130" as="sourcePoint" />
            <mxPoint x="200" y="80" as="targetPoint" />
            <Array as="points">
              <mxPoint x="260" y="50" />
              <mxPoint x="250" y="66" />
            </Array>
          </mxGeometry>
        </mxCell>
        <mxCell id="zIZVEje3WuGMYo_VxOPI-3" value="frame" style="text;html=1;strokeColor=none;fillColor=none;align=center;verticalAlign=middle;whiteSpace=wrap;rounded=0;" vertex="1" parent="1">
          <mxGeometry x="200" y="40" width="60" height="30" as="geometry" />
        </mxCell>
        <mxCell id="zIZVEje3WuGMYo_VxOPI-4" value="Користувач" style="shape=umlActor;verticalLabelPosition=bottom;verticalAlign=top;html=1;outlineConnect=0;" vertex="1" parent="1">
          <mxGeometry x="90" y="270" width="30" height="60" as="geometry" />
        </mxCell>
        <mxCell id="zIZVEje3WuGMYo_VxOPI-5" value="Сервіс E-pay" style="shape=umlActor;verticalLabelPosition=bottom;verticalAlign=top;html=1;outlineConnect=0;" vertex="1" parent="1">
          <mxGeometry x="640" y="420" width="30" height="60" as="geometry" />
        </mxCell>
        <mxCell id="zIZVEje3WuGMYo_VxOPI-6" value="Зареєструвати користувача" style="ellipse;whiteSpace=wrap;html=1;" vertex="1" parent="1">
          <mxGeometry x="310" y="260" width="120" height="80" as="geometry" />
        </mxCell>
        <mxCell id="zIZVEje3WuGMYo_VxOPI-7" value="Підключити трекінг" style="ellipse;whiteSpace=wrap;html=1;" vertex="1" parent="1">
          <mxGeometry x="480" y="180" width="120" height="80" as="geometry" />
        </mxCell>
        <mxCell id="zIZVEje3WuGMYo_VxOPI-8" value="Сплатити підписку" style="ellipse;whiteSpace=wrap;html=1;" vertex="1" parent="1">
          <mxGeometry x="414" y="410" width="120" height="80" as="geometry" />
        </mxCell>
        <mxCell id="zIZVEje3WuGMYo_VxOPI-9" value="API для надання &lt;br&gt;рекомендацій з музики" style="shape=umlActor;verticalLabelPosition=bottom;verticalAlign=top;html=1;outlineConnect=0;" vertex="1" parent="1">
          <mxGeometry x="80" y="400" width="30" height="60" as="geometry" />
        </mxCell>
        <mxCell id="zIZVEje3WuGMYo_VxOPI-10" value="API для надання &lt;br&gt;рекомендацій для &lt;br&gt;покращення фіз. стану" style="shape=umlActor;verticalLabelPosition=bottom;verticalAlign=top;html=1;outlineConnect=0;" vertex="1" parent="1">
          <mxGeometry x="80" y="520" width="30" height="60" as="geometry" />
        </mxCell>
        <mxCell id="zIZVEje3WuGMYo_VxOPI-11" value="Співрозмовник" style="shape=umlActor;verticalLabelPosition=bottom;verticalAlign=top;html=1;outlineConnect=0;" vertex="1" parent="1">
          <mxGeometry x="640" y="90" width="30" height="60" as="geometry" />
        </mxCell>
        <mxCell id="zIZVEje3WuGMYo_VxOPI-12" value="" style="endArrow=none;html=1;rounded=0;exitX=0.5;exitY=0.5;exitDx=0;exitDy=0;exitPerimeter=0;entryX=1;entryY=0.5;entryDx=0;entryDy=0;" edge="1" parent="1" source="zIZVEje3WuGMYo_VxOPI-22" target="zIZVEje3WuGMYo_VxOPI-7">
          <mxGeometry width="50" height="50" relative="1" as="geometry">
            <mxPoint x="300" y="300" as="sourcePoint" />
            <mxPoint x="350" y="250" as="targetPoint" />
          </mxGeometry>
        </mxCell>
        <mxCell id="zIZVEje3WuGMYo_VxOPI-13" value="" style="endArrow=none;html=1;rounded=0;exitX=0.5;exitY=0.5;exitDx=0;exitDy=0;exitPerimeter=0;entryX=0;entryY=0.5;entryDx=0;entryDy=0;" edge="1" parent="1" source="zIZVEje3WuGMYo_VxOPI-4" target="zIZVEje3WuGMYo_VxOPI-6">
          <mxGeometry width="50" height="50" relative="1" as="geometry">
            <mxPoint x="300" y="300" as="sourcePoint" />
            <mxPoint x="350" y="250" as="targetPoint" />
          </mxGeometry>
        </mxCell>
        <mxCell id="zIZVEje3WuGMYo_VxOPI-14" value="" style="endArrow=none;html=1;rounded=0;entryX=1;entryY=0.5;entryDx=0;entryDy=0;exitX=0.5;exitY=0.5;exitDx=0;exitDy=0;exitPerimeter=0;" edge="1" parent="1" source="zIZVEje3WuGMYo_VxOPI-5" target="zIZVEje3WuGMYo_VxOPI-8">
          <mxGeometry width="50" height="50" relative="1" as="geometry">
            <mxPoint x="300" y="370" as="sourcePoint" />
            <mxPoint x="350" y="320" as="targetPoint" />
          </mxGeometry>
        </mxCell>
        <mxCell id="zIZVEje3WuGMYo_VxOPI-15" value="Перегляд рекомендацій&amp;nbsp;&lt;br&gt;щодо покращення&amp;nbsp;&lt;br&gt;фіз. стану" style="ellipse;whiteSpace=wrap;html=1;" vertex="1" parent="1">
          <mxGeometry x="340" y="490" width="120" height="80" as="geometry" />
        </mxCell>
        <mxCell id="zIZVEje3WuGMYo_VxOPI-16" value="Перегляд рекомендацій&lt;br&gt;щодо написання&lt;br&gt;муз. творів" style="ellipse;whiteSpace=wrap;html=1;" vertex="1" parent="1">
          <mxGeometry x="240" y="390" width="120" height="80" as="geometry" />
        </mxCell>
        <mxCell id="zIZVEje3WuGMYo_VxOPI-17" value="Ведення діалогу з&lt;br&gt;подальшим закохуванням&amp;nbsp;" style="ellipse;whiteSpace=wrap;html=1;" vertex="1" parent="1">
          <mxGeometry x="400" y="80" width="120" height="80" as="geometry" />
        </mxCell>
        <mxCell id="zIZVEje3WuGMYo_VxOPI-18" value="" style="endArrow=none;html=1;rounded=0;entryX=1;entryY=0.5;entryDx=0;entryDy=0;exitX=0.5;exitY=0.5;exitDx=0;exitDy=0;exitPerimeter=0;" edge="1" parent="1" source="zIZVEje3WuGMYo_VxOPI-11" target="zIZVEje3WuGMYo_VxOPI-17">
          <mxGeometry width="50" height="50" relative="1" as="geometry">
            <mxPoint x="300" y="170" as="sourcePoint" />
            <mxPoint x="350" y="120" as="targetPoint" />
          </mxGeometry>
        </mxCell>
        <mxCell id="zIZVEje3WuGMYo_VxOPI-19" value="" style="endArrow=none;html=1;rounded=0;exitX=0;exitY=0.5;exitDx=0;exitDy=0;entryX=0.5;entryY=0.5;entryDx=0;entryDy=0;entryPerimeter=0;" edge="1" parent="1" source="zIZVEje3WuGMYo_VxOPI-16" target="zIZVEje3WuGMYo_VxOPI-9">
          <mxGeometry width="50" height="50" relative="1" as="geometry">
            <mxPoint x="300" y="310" as="sourcePoint" />
            <mxPoint x="350" y="260" as="targetPoint" />
          </mxGeometry>
        </mxCell>
        <mxCell id="zIZVEje3WuGMYo_VxOPI-20" value="" style="endArrow=none;html=1;rounded=0;exitX=0;exitY=0.5;exitDx=0;exitDy=0;entryX=0.5;entryY=0.5;entryDx=0;entryDy=0;entryPerimeter=0;" edge="1" parent="1" source="zIZVEje3WuGMYo_VxOPI-15" target="zIZVEje3WuGMYo_VxOPI-10">
          <mxGeometry width="50" height="50" relative="1" as="geometry">
            <mxPoint x="300" y="310" as="sourcePoint" />
            <mxPoint x="350" y="260" as="targetPoint" />
          </mxGeometry>
        </mxCell>
        <mxCell id="zIZVEje3WuGMYo_VxOPI-21" value="&amp;lt;&amp;lt;include&amp;gt;&amp;gt;" style="html=1;verticalAlign=bottom;endArrow=open;dashed=1;endSize=8;rounded=0;entryX=0.89;entryY=0.813;entryDx=0;entryDy=0;exitX=0.5;exitY=0;exitDx=0;exitDy=0;entryPerimeter=0;" edge="1" parent="1" source="zIZVEje3WuGMYo_VxOPI-8" target="zIZVEje3WuGMYo_VxOPI-6">
          <mxGeometry x="-0.0638" relative="1" as="geometry">
            <mxPoint x="360" y="280" as="sourcePoint" />
            <mxPoint x="280" y="280" as="targetPoint" />
            <mxPoint as="offset" />
          </mxGeometry>
        </mxCell>
        <mxCell id="zIZVEje3WuGMYo_VxOPI-22" value="Смарт годинник/&lt;br&gt;фітнес трекер" style="shape=umlActor;verticalLabelPosition=bottom;verticalAlign=top;html=1;" vertex="1" parent="1">
          <mxGeometry x="640" y="190" width="30" height="60" as="geometry" />
        </mxCell>
        <mxCell id="zIZVEje3WuGMYo_VxOPI-23" value="&amp;lt;&amp;lt;include&amp;gt;&amp;gt;" style="html=1;verticalAlign=bottom;endArrow=open;dashed=1;endSize=8;rounded=0;entryX=0;entryY=1;entryDx=0;entryDy=0;exitX=0.5;exitY=0;exitDx=0;exitDy=0;" edge="1" parent="1" source="zIZVEje3WuGMYo_VxOPI-16" target="zIZVEje3WuGMYo_VxOPI-6">
          <mxGeometry x="-0.0638" relative="1" as="geometry">
            <mxPoint x="500" y="410" as="sourcePoint" />
            <mxPoint x="380" y="350" as="targetPoint" />
            <mxPoint as="offset" />
          </mxGeometry>
        </mxCell>
        <mxCell id="zIZVEje3WuGMYo_VxOPI-24" value="&amp;lt;&amp;lt;include&amp;gt;&amp;gt;" style="html=1;verticalAlign=bottom;endArrow=open;dashed=1;endSize=8;rounded=0;entryX=0.5;entryY=1;entryDx=0;entryDy=0;exitX=0.5;exitY=0;exitDx=0;exitDy=0;" edge="1" parent="1" source="zIZVEje3WuGMYo_VxOPI-15" target="zIZVEje3WuGMYo_VxOPI-6">
          <mxGeometry x="-0.0638" relative="1" as="geometry">
            <mxPoint x="510" y="420" as="sourcePoint" />
            <mxPoint x="390" y="360" as="targetPoint" />
            <mxPoint as="offset" />
          </mxGeometry>
        </mxCell>
        <mxCell id="zIZVEje3WuGMYo_VxOPI-25" value="&amp;lt;&amp;lt;include&amp;gt;&amp;gt;" style="html=1;verticalAlign=bottom;endArrow=open;dashed=1;endSize=8;rounded=0;entryX=1;entryY=0;entryDx=0;entryDy=0;exitX=0;exitY=0.5;exitDx=0;exitDy=0;" edge="1" parent="1" source="zIZVEje3WuGMYo_VxOPI-7" target="zIZVEje3WuGMYo_VxOPI-6">
          <mxGeometry x="-0.0638" relative="1" as="geometry">
            <mxPoint x="520" y="430" as="sourcePoint" />
            <mxPoint x="400" y="370" as="targetPoint" />
            <mxPoint as="offset" />
          </mxGeometry>
        </mxCell>
        <mxCell id="zIZVEje3WuGMYo_VxOPI-26" value="&amp;lt;&amp;lt;include&amp;gt;&amp;gt;" style="html=1;verticalAlign=bottom;endArrow=open;dashed=1;endSize=8;rounded=0;entryX=0.5;entryY=0;entryDx=0;entryDy=0;exitX=0.5;exitY=1;exitDx=0;exitDy=0;" edge="1" parent="1" source="zIZVEje3WuGMYo_VxOPI-17" target="zIZVEje3WuGMYo_VxOPI-6">
          <mxGeometry x="-0.0638" relative="1" as="geometry">
            <mxPoint x="530" y="440" as="sourcePoint" />
            <mxPoint x="410" y="380" as="targetPoint" />
            <mxPoint as="offset" />
          </mxGeometry>
        </mxCell>
        <mxCell id="zIZVEje3WuGMYo_VxOPI-27" value="Перегляд прогресу&lt;br&gt;з фіз. тренувань" style="ellipse;whiteSpace=wrap;html=1;" vertex="1" parent="1">
          <mxGeometry x="210" y="150" width="120" height="80" as="geometry" />
        </mxCell>
        <mxCell id="zIZVEje3WuGMYo_VxOPI-28" value="&amp;lt;&amp;lt;include&amp;gt;&amp;gt;" style="html=1;verticalAlign=bottom;endArrow=open;dashed=1;endSize=8;rounded=0;entryX=0;entryY=0;entryDx=0;entryDy=0;exitX=0.5;exitY=1;exitDx=0;exitDy=0;" edge="1" parent="1" source="zIZVEje3WuGMYo_VxOPI-27" target="zIZVEje3WuGMYo_VxOPI-6">
          <mxGeometry x="-0.0638" relative="1" as="geometry">
            <mxPoint x="540" y="450" as="sourcePoint" />
            <mxPoint x="420" y="390" as="targetPoint" />
            <mxPoint as="offset" />
          </mxGeometry>
        </mxCell>
        <mxCell id="zIZVEje3WuGMYo_VxOPI-29" value="Перегляд даних з&lt;br&gt;смарт годинника/ фітнес трекеру" style="ellipse;whiteSpace=wrap;html=1;" vertex="1" parent="1">
          <mxGeometry x="480" y="320" width="120" height="80" as="geometry" />
        </mxCell>
        <mxCell id="zIZVEje3WuGMYo_VxOPI-30" value="&amp;lt;&amp;lt;include&amp;gt;&amp;gt;" style="html=1;verticalAlign=bottom;endArrow=open;dashed=1;endSize=8;rounded=0;entryX=0.5;entryY=1;entryDx=0;entryDy=0;exitX=0.5;exitY=0;exitDx=0;exitDy=0;" edge="1" parent="1" source="zIZVEje3WuGMYo_VxOPI-29" target="zIZVEje3WuGMYo_VxOPI-7">
          <mxGeometry x="-0.0638" relative="1" as="geometry">
            <mxPoint x="470" y="250" as="sourcePoint" />
            <mxPoint x="422.42640687119297" y="281.715728752538" as="targetPoint" />
            <mxPoint as="offset" />
          </mxGeometry>
        </mxCell>
        <mxCell id="zIZVEje3WuGMYo_VxOPI-31" value="Занесення цілей фіз. здоров&#39;я" style="ellipse;whiteSpace=wrap;html=1;" vertex="1" parent="1">
          <mxGeometry x="270" y="50" width="120" height="80" as="geometry" />
        </mxCell>
        <mxCell id="zIZVEje3WuGMYo_VxOPI-32" value="&amp;lt;&amp;lt;include&amp;gt;&amp;gt;" style="html=1;verticalAlign=bottom;endArrow=open;dashed=1;endSize=8;rounded=0;entryX=0.5;entryY=0;entryDx=0;entryDy=0;exitX=0.5;exitY=1;exitDx=0;exitDy=0;" edge="1" parent="1" source="zIZVEje3WuGMYo_VxOPI-31" target="zIZVEje3WuGMYo_VxOPI-6">
          <mxGeometry x="-0.4906" y="21" relative="1" as="geometry">
            <mxPoint x="300" y="230" as="sourcePoint" />
            <mxPoint x="337.57359312880703" y="281.715728752538" as="targetPoint" />
            <mxPoint as="offset" />
            <Array as="points" />
          </mxGeometry>
        </mxCell>
      </root>
    </mxGraphModel>
  </diagram>
</mxfile>
